<svg xmlns="http://www.w3.org/2000/svg" viewBox="0 0 1200 750" role="img" aria-label="Real-Time Data Pipeline illustration">
  <defs>
    <linearGradient id="g" x1="0" y1="0" x2="1" y2="1">
      <stop offset="0" stop-color="#111827"/>
      <stop offset="0.52" stop-color="#312e81"/>
      <stop offset="1" stop-color="#0f766e"/>
    </linearGradient>
    <linearGradient id="a" x1="0" y1="0" x2="1" y2="0">
      <stop offset="0" stop-color="#8b5cf6"/>
      <stop offset="1" stop-color="#22d3ee"/>
    </linearGradient>
    <filter id="shadow" x="-20%" y="-20%" width="140%" height="140%">
      <feDropShadow dx="0" dy="18" stdDeviation="22" flood-color="#020617" flood-opacity=".38"/>
    </filter>
  </defs>
  <rect width="1200" height="750" fill="url(#g)"/>
  <circle cx="1050" cy="70" r="260" fill="#22d3ee" opacity=".08"/>
  <circle cx="90" cy="700" r="300" fill="#8b5cf6" opacity=".11"/>
  <g opacity=".18">
    <path d="M0 125h1200M0 250h1200M0 375h1200M0 500h1200M0 625h1200" stroke="#fff"/>
    <path d="M150 0v750M300 0v750M450 0v750M600 0v750M750 0v750M900 0v750M1050 0v750" stroke="#fff"/>
  </g>
  <g filter="url(#shadow)">
    <rect x="100" y="120" width="1000" height="510" rx="36" fill="#0f172a" stroke="#ffffff" stroke-opacity=".18"/>
    <rect x="140" y="160" width="920" height="70" rx="20" fill="#ffffff" fill-opacity=".07"/>
    <circle cx="180" cy="195" r="9" fill="#f87171"/>
    <circle cx="210" cy="195" r="9" fill="#fbbf24"/>
    <circle cx="240" cy="195" r="9" fill="#34d399"/>
    <rect x="150" y="275" width="410" height="290" rx="26" fill="#ffffff" fill-opacity=".055"/>
    <rect x="590" y="275" width="455" height="290" rx="26" fill="#ffffff" fill-opacity=".045"/>
    <circle cx="355" cy="410" r="96" fill="url(#a)" opacity=".18"/>
    <text x="355" y="438" text-anchor="middle" font-family="Inter,Arial,sans-serif" font-size="92">⇄</text>
    <rect x="630" y="320" width="285" height="18" rx="9" fill="url(#a)" opacity=".95"/>
    <rect x="630" y="366" width="345" height="12" rx="6" fill="#ffffff" opacity=".2"/>
    <rect x="630" y="400" width="315" height="12" rx="6" fill="#ffffff" opacity=".13"/>
    <rect x="630" y="434" width="365" height="12" rx="6" fill="#ffffff" opacity=".13"/>
    <rect x="630" y="495" width="120" height="40" rx="20" fill="#8b5cf6" opacity=".85"/>
    <rect x="765" y="495" width="120" height="40" rx="20" fill="#22d3ee" opacity=".75"/>
  </g>
  <text x="120" y="685" font-family="Inter,Arial,sans-serif" font-size="46" font-weight="800" fill="#fff">Real-Time Data Pipeline</text>
  <text x="120" y="725" font-family="Inter,Arial,sans-serif" font-size="22" font-weight="500" fill="#cbd5e1">Kafka · Python · Node.js · Docker</text>
</svg>
